# xmcd
#
# Track frame offsets:
#	187
#	27195
#	51352
#	77792
#	94572
#	113960
#	135762
#	163990
#	188850
#	219637
#
# Disc length: 3310 seconds
#
# Revision: 0
# Processed by: cddbd v1.5.1PL0 Copyright (c) Steve Scherf et al.
# Submitted via: EasyCDDAExtractor 8.1.4.1
#
DISCID=830cec0a
DTITLE=Tuan Vu - The Best of Tuan Vu
DYEAR=1900
DGENRE=
TTITLE0=No va toi
TTITLE1=Quan nua khuya
TTITLE2=Nhip cau tri am
TTITLE3=Mua mua di qua
TTITLE4=Con duong xua em di
TTITLE5=Em hau phuong anh tien chien
TTITLE6=Sao chua thay hoi am
TTITLE7=Ngay do
TTITLE8=Neu hai dua minh
TTITLE9=Chuyen tinh nguoi dan ao
EXTD=
EXTT0=
EXTT1=
EXTT2=
EXTT3=
EXTT4=
EXTT5=
EXTT6=
EXTT7=
EXTT8=
EXTT9=
PLAYORDER=
